<svg xmlns="http://www.w3.org/2000/svg" viewBox="0 0 300 232">
  <defs>
    <linearGradient id="go" x1="0" y1="0" x2="1" y2="1"><stop offset="0" stop-color="#E09A3A"/><stop offset="1" stop-color="#C9761A"/></linearGradient>
    <marker id="a" viewBox="0 0 10 10" refX="7" refY="5" markerWidth="5" markerHeight="5" orient="auto"><path d="M0 0l10 5-10 5z" fill="#1F3A5F"/></marker>
  </defs>
  <!-- dati reali -->
  <rect x="8" y="16" width="82" height="112" rx="7" fill="#FFFFFF" stroke="#2F5D8A" stroke-width="2.5"/>
  <path d="M8 34V23a7 7 0 0 1 7-7h68a7 7 0 0 1 7 7v11z" fill="#2F5D8A"/>
<circle cx="22" cy="49" r="5.5" fill="#6F4FD1"/><rect x="34" y="44" width="42" height="4" rx="2" fill="#9FB3CC"/><rect x="34" y="51" width="27" height="4" rx="2" fill="#9FB3CC"/>
<circle cx="22" cy="70" r="5.5" fill="#6F4FD1"/><rect x="34" y="65" width="42" height="4" rx="2" fill="#9FB3CC"/><rect x="34" y="72" width="27" height="4" rx="2" fill="#9FB3CC"/>
<circle cx="22" cy="91" r="5.5" fill="#6F4FD1"/><rect x="34" y="86" width="42" height="4" rx="2" fill="#9FB3CC"/><rect x="34" y="93" width="27" height="4" rx="2" fill="#9FB3CC"/>
<circle cx="22" cy="112" r="5.5" fill="#6F4FD1"/><rect x="34" y="107" width="42" height="4" rx="2" fill="#9FB3CC"/><rect x="34" y="114" width="27" height="4" rx="2" fill="#9FB3CC"/>
  <circle cx="88" cy="18" r="13" fill="#1F3A5F"/>
  <rect x="81.500" y="16.500" width="13" height="9.500" rx="2" fill="#FFFFFF"/><path d="M84 16.500v-3.500a4 4 0 0 1 8 0v3.500" fill="none" stroke="#FFFFFF" stroke-width="2.200" stroke-linecap="round"/>
  <!-- modello generativo -->
  <path d="M97 72h20" stroke="#1F3A5F" stroke-width="3.500" stroke-linecap="round" marker-end="url(#a)"/>
  <path d="M181 72h20" stroke="#1F3A5F" stroke-width="3.500" stroke-linecap="round" marker-end="url(#a)"/>
  <circle cx="150" cy="72" r="27" fill="url(#go)"/>
  <circle cx="150" cy="72" r="22" fill="none" stroke="#FFFFFF" stroke-width="2" stroke-opacity=".7"/>
  <g fill="#FFFFFF"><path d="M147 56l3.500 10.500L161 70l-10.500 3.500L147 84l-3.500-10.500L133 70l10.500-3.500z"/><path d="M160 76l1.800 5.200L167 83l-5.200 1.800L160 90l-1.800-5.200L153 83l5.200-1.800z"/></g>
  <!-- dati sintetici -->
  <rect x="210" y="16" width="82" height="112" rx="7" fill="#FFFFFF" stroke="#2E8B57" stroke-width="2.500" stroke-dasharray="6 4"/>
  <path d="M210 34V23a7 7 0 0 1 7-7h68a7 7 0 0 1 7 7v11z" fill="#2E8B57"/>
<circle cx="224" cy="49" r="5.5" fill="#E4F2EA" stroke="#2E8B57" stroke-width="1.800" stroke-dasharray="3 2"/><rect x="236" y="44" width="42" height="4" rx="2" fill="#A9D3BC"/><rect x="236" y="51" width="27" height="4" rx="2" fill="#A9D3BC"/>
<circle cx="224" cy="70" r="5.5" fill="#E4F2EA" stroke="#2E8B57" stroke-width="1.800" stroke-dasharray="3 2"/><rect x="236" y="65" width="42" height="4" rx="2" fill="#A9D3BC"/><rect x="236" y="72" width="27" height="4" rx="2" fill="#A9D3BC"/>
<circle cx="224" cy="91" r="5.5" fill="#E4F2EA" stroke="#2E8B57" stroke-width="1.800" stroke-dasharray="3 2"/><rect x="236" y="86" width="42" height="4" rx="2" fill="#A9D3BC"/><rect x="236" y="93" width="27" height="4" rx="2" fill="#A9D3BC"/>
<circle cx="224" cy="112" r="5.5" fill="#E4F2EA" stroke="#2E8B57" stroke-width="1.800" stroke-dasharray="3 2"/><rect x="236" y="107" width="42" height="4" rx="2" fill="#A9D3BC"/><rect x="236" y="114" width="27" height="4" rx="2" fill="#A9D3BC"/>
  <!-- stessa distribuzione statistica -->
  <path d="M8 220h82M210 220h82" stroke="#8A97A8" stroke-width="2" stroke-linecap="round"/>
  <g fill="#2F5D8A"><rect x="15" y="196" width="10" height="22" rx="2"/><rect x="29" y="174" width="10" height="44" rx="2"/><rect x="43" y="160" width="10" height="58" rx="2"/><rect x="57" y="182" width="10" height="36" rx="2"/><rect x="71" y="202" width="10" height="16" rx="2"/></g>
  <g fill="#CFE8DA" stroke="#2E8B57" stroke-width="1.800" stroke-dasharray="4 2.500"><rect x="217" y="194" width="10" height="24" rx="2"/><rect x="231" y="176" width="10" height="42" rx="2"/><rect x="245" y="162" width="10" height="56" rx="2"/><rect x="259" y="180" width="10" height="38" rx="2"/><rect x="273" y="203" width="10" height="15" rx="2"/></g>
  <g fill="none" stroke="#1F3A5F" stroke-width="4.500" stroke-linecap="round"><path d="M132 184q9-9 18 0t18 0"/><path d="M132 198q9-9 18 0t18 0"/></g>
</svg>
