<svg xmlns="http://www.w3.org/2000/svg" viewBox="0 0 628 283">
  <defs>
    <linearGradient id="gg" x1="0" y1="0" x2="1" y2="1"><stop offset="0" stop-color="#49A874"/><stop offset="1" stop-color="#2E8B57"/></linearGradient>
    <linearGradient id="gr" x1="0" y1="0" x2="1" y2="1"><stop offset="0" stop-color="#D9534A"/><stop offset="1" stop-color="#A93226"/></linearGradient>
    <linearGradient id="go" x1="0" y1="0" x2="1" y2="1"><stop offset="0" stop-color="#E09A3A"/><stop offset="1" stop-color="#C9761A"/></linearGradient>
    <linearGradient id="gb" x1="0" y1="0" x2="1" y2="1"><stop offset="0" stop-color="#4A7DB0"/><stop offset="1" stop-color="#2F5D8A"/></linearGradient>
    <linearGradient id="gn" x1="0" y1="0" x2="1" y2="1"><stop offset="0" stop-color="#3B5C8A"/><stop offset="1" stop-color="#1F3A5F"/></linearGradient>
    <linearGradient id="gp" x1="0" y1="0" x2="1" y2="1"><stop offset="0" stop-color="#8C72E0"/><stop offset="1" stop-color="#6F4FD1"/></linearGradient>
    <marker id="an" viewBox="0 0 10 10" refX="7" refY="5" markerWidth="4.500" markerHeight="4.500" orient="auto"><path d="M0 0l10 5-10 5z" fill="#1F3A5F"/></marker>
  </defs>
  <ellipse cx="150" cy="300" rx="230" ry="70" fill="#E4F2EA"/><ellipse cx="470" cy="290" rx="260" ry="90" fill="#EBF2FA"/><ellipse cx="560" cy="150" rx="150" ry="46" fill="#E4F2EA" fill-opacity=".7"/>
  <g fill="#49A874"><path d="M250 262l9-20 9 20z"/><path d="M268 266l7-16 7 16z"/><path d="M520 196l9-20 9 20z"/><path d="M398 246l8-18 8 18z"/><path d="M110 196l7-16 7 16z"/></g>
  <g fill="#8A6A3B"><rect x="257.500" y="262" width="3" height="6"/><rect x="273.500" y="266" width="3" height="5"/><rect x="527.500" y="196" width="3" height="6"/><rect x="404.500" y="246" width="3" height="5"/><rect x="115.500" y="196" width="3" height="5"/></g>
  <path d="M-10 252C30 252 45 247 70 238S150 150 195 150S270 205 325 200S400 110 455 105S540 62 580 52S615 44 640 40" fill="none" stroke="#C9D2DE" stroke-width="34" stroke-linecap="round"/>
  <path d="M-10 252C30 252 45 247 70 238S150 150 195 150S270 205 325 200S400 110 455 105S540 62 580 52S615 44 640 40" fill="none" stroke="#3A4A5E" stroke-width="27" stroke-linecap="round"/>
  <path d="M-10 252C30 252 45 247 70 238S150 150 195 150S270 205 325 200S400 110 455 105S540 62 580 52S615 44 640 40" fill="none" stroke="#FFFFFF" stroke-width="2.200" stroke-dasharray="11 9"/>
<path d="M70 233C63 220 52 213 52 201a18 18 0 1 1 36 0C88 213 77 220 70 233z" fill="url(#gn)" stroke="#FFFFFF" stroke-width="2"/><g transform="translate(60 191) scale(.830)" fill="none" stroke="#FFFFFF" stroke-width="2.200" stroke-linecap="round" stroke-linejoin="round"><circle cx="12" cy="12" r="10"/><circle cx="12" cy="12" r="6"/><circle cx="12" cy="12" r="2"/></g><circle cx="70" cy="238" r="4.500" fill="#FFFFFF" stroke="#1F3A5F" stroke-width="2"/>
<path d="M195 145C188 132 177 125 177 113a18 18 0 1 1 36 0C213 125 202 132 195 145z" fill="url(#gb)" stroke="#FFFFFF" stroke-width="2"/><g transform="translate(185 103) scale(.830)" fill="none" stroke="#FFFFFF" stroke-width="2.200" stroke-linecap="round" stroke-linejoin="round"><rect x="3" y="4" width="18" height="18" rx="2"/><path d="M16 2v4M8 2v4M3 10h18"/><path d="M8 15l2.500 2.500L16 13"/></g><circle cx="195" cy="150" r="4.500" fill="#FFFFFF" stroke="#1F3A5F" stroke-width="2"/>
<path d="M325 195C318 182 307 175 307 163a18 18 0 1 1 36 0C343 175 332 182 325 195z" fill="url(#gg)" stroke="#FFFFFF" stroke-width="2"/><g transform="translate(315 153) scale(.830)" fill="none" stroke="#FFFFFF" stroke-width="2.200" stroke-linecap="round" stroke-linejoin="round"><path d="M12 2c4 3 5 8 5 12H7c0-4 1-9 5-12z"/><circle cx="12" cy="9" r="1.600"/><path d="M7 14l-3 3 3 1M17 14l3 3-3 1M10 18v4M14 18v4"/></g><circle cx="325" cy="200" r="4.500" fill="#FFFFFF" stroke="#1F3A5F" stroke-width="2"/>
<path d="M455 100C448 87 437 80 437 68a18 18 0 1 1 36 0C473 80 462 87 455 100z" fill="url(#go)" stroke="#FFFFFF" stroke-width="2"/><g transform="translate(445 58) scale(.830)" fill="none" stroke="#FFFFFF" stroke-width="2.200" stroke-linecap="round" stroke-linejoin="round"><path d="M22 12h-4l-3 9L9 3l-3 9H2"/></g><circle cx="455" cy="105" r="4.500" fill="#FFFFFF" stroke="#1F3A5F" stroke-width="2"/>
<path d="M580 47C573 34 562 27 562 15a18 18 0 1 1 36 0C598 27 587 34 580 47z" fill="url(#gp)" stroke="#FFFFFF" stroke-width="2"/><g transform="translate(570 5) scale(.830)" fill="none" stroke="#FFFFFF" stroke-width="2.200" stroke-linecap="round" stroke-linejoin="round"><path d="M5 22V3"/><path d="M5 4h13l-3 4.500 3 4.500H5"/></g><circle cx="580" cy="52" r="4.500" fill="#FFFFFF" stroke="#1F3A5F" stroke-width="2"/>
</svg>
