<svg xmlns="http://www.w3.org/2000/svg" viewBox="0 0 176 72">
  <defs>
    <linearGradient id="gg" x1="0" y1="0" x2="1" y2="1"><stop offset="0" stop-color="#49A874"/><stop offset="1" stop-color="#2E8B57"/></linearGradient>
    <linearGradient id="go" x1="0" y1="0" x2="1" y2="1"><stop offset="0" stop-color="#E09A3A"/><stop offset="1" stop-color="#C9761A"/></linearGradient>
    <linearGradient id="gb" x1="0" y1="0" x2="1" y2="1"><stop offset="0" stop-color="#4A7DB0"/><stop offset="1" stop-color="#2F5D8A"/></linearGradient>
    <linearGradient id="gn" x1="0" y1="0" x2="1" y2="1"><stop offset="0" stop-color="#3B5C8A"/><stop offset="1" stop-color="#1F3A5F"/></linearGradient>
    <linearGradient id="gp" x1="0" y1="0" x2="1" y2="1"><stop offset="0" stop-color="#8C72E0"/><stop offset="1" stop-color="#6F4FD1"/></linearGradient>
    <marker id="an" viewBox="0 0 10 10" refX="7" refY="5" markerWidth="4.5" markerHeight="4.5" orient="auto"><path d="M0 0l10 5-10 5z" fill="#1F3A5F"/></marker>
  </defs>
<path d="M40 36h96" stroke="#C9D2DE" stroke-width="7" stroke-linecap="round"/><path d="M40 36h62" stroke="url(#gp)" stroke-width="7" stroke-linecap="round"/>
<circle cx="20" cy="36" r="16" fill="#FFFFFF" stroke="#1F3A5F" stroke-width="2.2"/>
<g transform="translate(10.4 26.4) scale(0.800)" fill="none" stroke="#1F3A5F" stroke-width="2.2" stroke-linecap="round" stroke-linejoin="round"><path d="M20 21v-2a4 4 0 0 0-4-4H8a4 4 0 0 0-4 4v2"/><circle cx="12" cy="7" r="4"/></g>
<circle cx="156" cy="36" r="16" fill="#FFFFFF" stroke="#6F4FD1" stroke-width="2.2"/>
<g transform="translate(146.4 26.4) scale(0.800)" fill="none" stroke="#6F4FD1" stroke-width="2.2" stroke-linecap="round" stroke-linejoin="round"><rect x="4" y="4" width="16" height="16" rx="2"/><rect x="9" y="9" width="6" height="6"/><path d="M9 1v3M15 1v3M9 20v3M15 20v3M20 9h3M20 14h3M1 9h3M1 14h3"/></g>
<circle cx="102" cy="36" r="21" fill="url(#gg)"/><circle cx="102" cy="36" r="17.6" fill="none" stroke="#FFFFFF" stroke-width="1.6" stroke-opacity=".7"/>
<g transform="translate(90.7 24.7) scale(0.945)" fill="none" stroke="#FFFFFF" stroke-width="2.2" stroke-linecap="round" stroke-linejoin="round"><path d="M23 4v6h-6"/><path d="M1 20v-6h6"/><path d="M3.51 9a9 9 0 0 1 14.85-3.36L23 10M1 14l4.64 4.36A9 9 0 0 0 20.49 15"/></g>
</svg>
