<svg xmlns="http://www.w3.org/2000/svg" viewBox="0 0 160 72">
  <defs>
    <linearGradient id="gg" x1="0" y1="0" x2="1" y2="1"><stop offset="0" stop-color="#49A874"/><stop offset="1" stop-color="#2E8B57"/></linearGradient>
    <linearGradient id="go" x1="0" y1="0" x2="1" y2="1"><stop offset="0" stop-color="#E09A3A"/><stop offset="1" stop-color="#C9761A"/></linearGradient>
    <linearGradient id="gb" x1="0" y1="0" x2="1" y2="1"><stop offset="0" stop-color="#4A7DB0"/><stop offset="1" stop-color="#2F5D8A"/></linearGradient>
    <linearGradient id="gn" x1="0" y1="0" x2="1" y2="1"><stop offset="0" stop-color="#3B5C8A"/><stop offset="1" stop-color="#1F3A5F"/></linearGradient>
    <linearGradient id="gp" x1="0" y1="0" x2="1" y2="1"><stop offset="0" stop-color="#8C72E0"/><stop offset="1" stop-color="#6F4FD1"/></linearGradient>
    <marker id="an" viewBox="0 0 10 10" refX="7" refY="5" markerWidth="4.5" markerHeight="4.5" orient="auto"><path d="M0 0l10 5-10 5z" fill="#1F3A5F"/></marker>
  </defs>
<rect x="12" y="8" width="44" height="56" rx="5" fill="#FFFFFF" stroke="#C9761A" stroke-width="2.5"/><path d="M20 21h28M20 32h22M20 43h28M20 54h14" stroke="#F3DDBF" stroke-width="4" stroke-linecap="round"/>
<path d="M62 30q24-12 44-12" fill="none" stroke="#1F3A5F" stroke-width="3" stroke-linecap="round" marker-end="url(#an)"/>
<path d="M62 42q24 12 44 12" fill="none" stroke="#1F3A5F" stroke-width="3" stroke-linecap="round" marker-end="url(#an)"/>
<circle cx="130" cy="18" r="17" fill="url(#gn)"/>
<g fill="#F4C542"><polygon points="130.00,5.25 130.60,6.97 132.43,7.01 130.97,8.12 131.50,9.86 130.00,8.82 128.50,9.86 129.03,8.12 127.57,7.01 129.40,6.97"/><polygon points="135.10,6.62 135.70,8.34 137.53,8.38 136.07,9.48 136.60,11.23 135.10,10.19 133.60,11.23 134.13,9.48 132.67,8.38 134.50,8.34"/><polygon points="138.83,10.35 139.43,12.07 141.26,12.11 139.80,13.22 140.33,14.96 138.83,13.92 137.33,14.96 137.86,13.22 136.41,12.11 138.23,12.07"/><polygon points="140.20,15.45 140.80,17.17 142.63,17.21 141.17,18.32 141.70,20.06 140.20,19.02 138.70,20.06 139.23,18.32 137.77,17.21 139.60,17.17"/><polygon points="138.83,20.55 139.43,22.27 141.26,22.31 139.80,23.42 140.33,25.16 138.83,24.12 137.33,25.16 137.86,23.42 136.41,22.31 138.23,22.27"/><polygon points="135.10,24.28 135.70,26.01 137.53,26.05 136.07,27.15 136.60,28.90 135.10,27.85 133.60,28.90 134.13,27.15 132.67,26.05 134.50,26.01"/><polygon points="130.00,25.65 130.60,27.37 132.43,27.41 130.97,28.52 131.50,30.26 130.00,29.22 128.50,30.26 129.03,28.52 127.57,27.41 129.40,27.37"/><polygon points="124.90,24.28 125.50,26.01 127.33,26.05 125.87,27.15 126.40,28.90 124.90,27.85 123.40,28.90 123.93,27.15 122.47,26.05 124.30,26.01"/><polygon points="121.17,20.55 121.77,22.27 123.59,22.31 122.14,23.42 122.67,25.16 121.17,24.12 119.67,25.16 120.20,23.42 118.74,22.31 120.57,22.27"/><polygon points="119.80,15.45 120.40,17.17 122.23,17.21 120.77,18.32 121.30,20.06 119.80,19.02 118.30,20.06 118.83,18.32 117.37,17.21 119.20,17.17"/><polygon points="121.17,10.35 121.77,12.07 123.59,12.11 122.14,13.22 122.67,14.96 121.17,13.92 119.67,14.96 120.20,13.22 118.74,12.11 120.57,12.07"/><polygon points="124.90,6.62 125.50,8.34 127.33,8.38 125.87,9.48 126.40,11.23 124.90,10.19 123.40,11.23 123.93,9.48 122.47,8.38 124.30,8.34"/></g>
<circle cx="130" cy="54" r="17" fill="url(#gg)"/><circle cx="130" cy="54" r="14.3" fill="none" stroke="#FFFFFF" stroke-width="1.3" stroke-opacity=".7"/>
<g transform="translate(120.8 44.8) scale(0.765)" fill="none" stroke="#FFFFFF" stroke-width="2.2" stroke-linecap="round" stroke-linejoin="round"><path d="M3 22h18M6 18v-7M10 18v-7M14 18v-7M18 18v-7M12 2l8 5H4zM4 18h16"/></g>
</svg>
