<svg xmlns="http://www.w3.org/2000/svg" viewBox="0 0 182 78">
  <defs>
    <linearGradient id="gg" x1="0" y1="0" x2="1" y2="1"><stop offset="0" stop-color="#49A874"/><stop offset="1" stop-color="#2E8B57"/></linearGradient>
    <linearGradient id="go" x1="0" y1="0" x2="1" y2="1"><stop offset="0" stop-color="#E09A3A"/><stop offset="1" stop-color="#C9761A"/></linearGradient>
    <linearGradient id="gb" x1="0" y1="0" x2="1" y2="1"><stop offset="0" stop-color="#4A7DB0"/><stop offset="1" stop-color="#2F5D8A"/></linearGradient>
    <linearGradient id="gn" x1="0" y1="0" x2="1" y2="1"><stop offset="0" stop-color="#3B5C8A"/><stop offset="1" stop-color="#1F3A5F"/></linearGradient>
    <linearGradient id="gp" x1="0" y1="0" x2="1" y2="1"><stop offset="0" stop-color="#8C72E0"/><stop offset="1" stop-color="#6F4FD1"/></linearGradient>
    <marker id="an" viewBox="0 0 10 10" refX="7" refY="5" markerWidth="4.5" markerHeight="4.5" orient="auto"><path d="M0 0l10 5-10 5z" fill="#1F3A5F"/></marker>
  </defs>
<circle cx="50" cy="38" r="27" fill="url(#gb)"/><circle cx="50" cy="38" r="22.7" fill="none" stroke="#FFFFFF" stroke-width="2.0" stroke-opacity=".7"/>
<g transform="translate(35.4 23.4) scale(1.215)" fill="none" stroke="#FFFFFF" stroke-width="2.2" stroke-linecap="round" stroke-linejoin="round"><path d="M2 3h6a4 4 0 0 1 4 4v14a3 3 0 0 0-3-3H2z"/><path d="M22 3h-6a4 4 0 0 0-4 4v14a3 3 0 0 1 3-3h7z"/></g>
<path d="M85 38h12M91 32v12" stroke="#1F3A5F" stroke-width="3.2" stroke-linecap="round"/>
<circle cx="132" cy="38" r="27" fill="url(#gp)"/><circle cx="132" cy="38" r="22.7" fill="none" stroke="#FFFFFF" stroke-width="2.0" stroke-opacity=".7"/>
<g transform="translate(117.4 23.4) scale(1.215)" fill="none" stroke="#FFFFFF" stroke-width="2.2" stroke-linecap="round" stroke-linejoin="round"><path d="M14.7 6.3a1 1 0 0 0 0 1.4l1.6 1.6a1 1 0 0 0 1.4 0l3.77-3.77a6 6 0 0 1-7.94 7.94l-6.91 6.91a2.12 2.12 0 0 1-3-3l6.91-6.91a6 6 0 0 1 7.94-7.94l-3.76 3.76z"/></g>
</svg>
