<svg xmlns="http://www.w3.org/2000/svg" viewBox="0 0 182 78">
  <defs>
    <linearGradient id="gg" x1="0" y1="0" x2="1" y2="1"><stop offset="0" stop-color="#49A874"/><stop offset="1" stop-color="#2E8B57"/></linearGradient>
    <linearGradient id="go" x1="0" y1="0" x2="1" y2="1"><stop offset="0" stop-color="#E09A3A"/><stop offset="1" stop-color="#C9761A"/></linearGradient>
    <linearGradient id="gb" x1="0" y1="0" x2="1" y2="1"><stop offset="0" stop-color="#4A7DB0"/><stop offset="1" stop-color="#2F5D8A"/></linearGradient>
    <linearGradient id="gn" x1="0" y1="0" x2="1" y2="1"><stop offset="0" stop-color="#3B5C8A"/><stop offset="1" stop-color="#1F3A5F"/></linearGradient>
    <linearGradient id="gp" x1="0" y1="0" x2="1" y2="1"><stop offset="0" stop-color="#8C72E0"/><stop offset="1" stop-color="#6F4FD1"/></linearGradient>
    <marker id="an" viewBox="0 0 10 10" refX="7" refY="5" markerWidth="4.5" markerHeight="4.5" orient="auto"><path d="M0 0l10 5-10 5z" fill="#1F3A5F"/></marker>
  </defs>
<circle cx="32" cy="38" r="25" fill="url(#go)"/><circle cx="32" cy="38" r="21.0" fill="none" stroke="#FFFFFF" stroke-width="1.9" stroke-opacity=".7"/>
<g transform="translate(18.5 24.5) scale(1.125)" fill="none" stroke="#FFFFFF" stroke-width="2.2" stroke-linecap="round" stroke-linejoin="round"><path d="M12 3v18"/><path d="M7 21h10"/><path d="M5 7h14"/><path d="M5 7l-3 7a3 3 0 0 0 6 0z"/><path d="M19 7l-3 7a3 3 0 0 0 6 0z"/></g>
<path d="M70 14v48" stroke="#D5DCE5" stroke-width="2" stroke-dasharray="3 5" stroke-linecap="round"/>
<path d="M114 31h20" fill="none" stroke="#1F3A5F" stroke-width="2.6" stroke-linecap="round" marker-end="url(#an)"/>
<path d="M136 45h-20" fill="none" stroke="#1F3A5F" stroke-width="2.6" stroke-linecap="round" marker-end="url(#an)"/>
<circle cx="98" cy="38" r="17" fill="#FFFFFF" stroke="#1F3A5F" stroke-width="2.4"/>
<g transform="translate(87.8 27.8) scale(0.850)" fill="none" stroke="#1F3A5F" stroke-width="2.2" stroke-linecap="round" stroke-linejoin="round"><path d="M20 21v-2a4 4 0 0 0-4-4H8a4 4 0 0 0-4 4v2"/><circle cx="12" cy="7" r="4"/></g>
<circle cx="156" cy="38" r="17" fill="#FFFFFF" stroke="#6F4FD1" stroke-width="2.4"/>
<g transform="translate(145.8 27.8) scale(0.850)" fill="none" stroke="#6F4FD1" stroke-width="2.2" stroke-linecap="round" stroke-linejoin="round"><rect x="4" y="4" width="16" height="16" rx="2"/><rect x="9" y="9" width="6" height="6"/><path d="M9 1v3M15 1v3M9 20v3M15 20v3M20 9h3M20 14h3M1 9h3M1 14h3"/></g>
</svg>
