<svg xmlns="http://www.w3.org/2000/svg" viewBox="0 0 120 150">
  <defs>
    <linearGradient id="gg" x1="0" y1="0" x2="1" y2="1"><stop offset="0" stop-color="#49A874"/><stop offset="1" stop-color="#2E8B57"/></linearGradient>
    <linearGradient id="go" x1="0" y1="0" x2="1" y2="1"><stop offset="0" stop-color="#E09A3A"/><stop offset="1" stop-color="#C9761A"/></linearGradient>
    <linearGradient id="gb" x1="0" y1="0" x2="1" y2="1"><stop offset="0" stop-color="#4A7DB0"/><stop offset="1" stop-color="#2F5D8A"/></linearGradient>
    <linearGradient id="gn" x1="0" y1="0" x2="1" y2="1"><stop offset="0" stop-color="#3B5C8A"/><stop offset="1" stop-color="#1F3A5F"/></linearGradient>
    <linearGradient id="gp" x1="0" y1="0" x2="1" y2="1"><stop offset="0" stop-color="#8C72E0"/><stop offset="1" stop-color="#6F4FD1"/></linearGradient>
    <marker id="an" viewBox="0 0 10 10" refX="7" refY="5" markerWidth="4.500" markerHeight="4.500" orient="auto"><path d="M0 0l10 5-10 5z" fill="#1F3A5F"/></marker>
  </defs>
<path d="M56 62q6 18 14 24" fill="none" stroke="#1F3A5F" stroke-width="2.500" stroke-dasharray="3 5" stroke-linecap="round"/>
<circle cx="44" cy="38" r="32" fill="url(#go)"/><circle cx="44" cy="38" r="28" fill="none" stroke="#FFFFFF" stroke-width="2" stroke-opacity=".7"/>
<g transform="translate(26.7 20.7) scale(1.440)" fill="none" stroke="#FFFFFF" stroke-width="2.200" stroke-linecap="round" stroke-linejoin="round"><circle cx="12" cy="12" r="10"/><path d="M2 12h20"/><path d="M12 2a15.300 15.300 0 0 1 4 10 15.300 15.300 0 0 1-4 10 15.300 15.300 0 0 1-4-10 15.300 15.300 0 0 1 4-10z"/></g>
<circle cx="82" cy="112" r="28" fill="url(#gn)"/><circle cx="82" cy="112" r="24" fill="none" stroke="#FFFFFF" stroke-width="2" stroke-opacity=".7"/>
<g transform="translate(66.9 96.9) scale(1.260)" fill="none" stroke="#FFFFFF" stroke-width="2.200" stroke-linecap="round" stroke-linejoin="round"><circle cx="11" cy="11" r="8"/><path d="M21 21l-4.350-4.350"/></g>
</svg>
