<svg xmlns="http://www.w3.org/2000/svg" viewBox="0 0 300 232">
  <defs>
    <linearGradient id="gg" x1="0" y1="0" x2="1" y2="1"><stop offset="0" stop-color="#49A874"/><stop offset="1" stop-color="#2E8B57"/></linearGradient>
    <linearGradient id="gr" x1="0" y1="0" x2="1" y2="1"><stop offset="0" stop-color="#D9534A"/><stop offset="1" stop-color="#A93226"/></linearGradient>
    <linearGradient id="go" x1="0" y1="0" x2="1" y2="1"><stop offset="0" stop-color="#E09A3A"/><stop offset="1" stop-color="#C9761A"/></linearGradient>
    <linearGradient id="gb" x1="0" y1="0" x2="1" y2="1"><stop offset="0" stop-color="#4A7DB0"/><stop offset="1" stop-color="#2F5D8A"/></linearGradient>
    <linearGradient id="gn" x1="0" y1="0" x2="1" y2="1"><stop offset="0" stop-color="#3B5C8A"/><stop offset="1" stop-color="#1F3A5F"/></linearGradient>
    <marker id="an" viewBox="0 0 10 10" refX="7" refY="5" markerWidth="4.500" markerHeight="4.500" orient="auto"><path d="M0 0l10 5-10 5z" fill="#1F3A5F"/></marker>
  </defs>
  <g fill="none" stroke="#C9D2DE" stroke-width="2" stroke-dasharray="4 5" stroke-linecap="round"><path d="M112 130l-20 28M188 130l20 28"/></g>
  <circle cx="150" cy="80" r="58" fill="#FFFFFF" stroke="#D5DCE5" stroke-width="14"/>
  <circle cx="150" cy="80" r="58" fill="none" stroke="url(#gg)" stroke-width="14" stroke-linecap="round" stroke-dasharray="340 400" transform="rotate(-84 150 80)"/>
<g transform="translate(122 52) scale(2.330)" fill="none" stroke="#1F3A5F" stroke-width="2.200" stroke-linecap="round" stroke-linejoin="round"><path d="M22 12h-4l-3 9L9 3l-3 9H2"/></g>
<circle cx="78" cy="190" r="32" fill="url(#go)"/><circle cx="78" cy="190" r="27" fill="none" stroke="#FFFFFF" stroke-width="2" stroke-opacity=".7"/>
<g transform="translate(61 173) scale(1.420)" fill="none" stroke="#FFFFFF" stroke-width="2.200" stroke-linecap="round" stroke-linejoin="round"><circle cx="12" cy="12" r="10"/><path d="M12 6v6l4 2"/></g>
<circle cx="222" cy="190" r="32" fill="url(#gb)"/><circle cx="222" cy="190" r="27" fill="none" stroke="#FFFFFF" stroke-width="2" stroke-opacity=".7"/>
<g transform="translate(205 173) scale(1.420)" fill="none" stroke="#FFFFFF" stroke-width="2.200" stroke-linecap="round" stroke-linejoin="round"><path d="M3 18v-6a9 9 0 0 1 18 0v6"/><path d="M21 19a2 2 0 0 1-2 2h-1a2 2 0 0 1-2-2v-3a2 2 0 0 1 2-2h3zM3 19a2 2 0 0 0 2 2h1a2 2 0 0 0 2-2v-3a2 2 0 0 0-2-2H3z"/></g>
</svg>
