<svg xmlns="http://www.w3.org/2000/svg" viewBox="0 0 280 182">
  <defs>
    <linearGradient id="gg" x1="0" y1="0" x2="1" y2="1"><stop offset="0" stop-color="#49A874"/><stop offset="1" stop-color="#2E8B57"/></linearGradient>
    <linearGradient id="go" x1="0" y1="0" x2="1" y2="1"><stop offset="0" stop-color="#E09A3A"/><stop offset="1" stop-color="#C9761A"/></linearGradient>
    <linearGradient id="gb" x1="0" y1="0" x2="1" y2="1"><stop offset="0" stop-color="#4A7DB0"/><stop offset="1" stop-color="#2F5D8A"/></linearGradient>
    <linearGradient id="gn" x1="0" y1="0" x2="1" y2="1"><stop offset="0" stop-color="#3B5C8A"/><stop offset="1" stop-color="#1F3A5F"/></linearGradient>
    <linearGradient id="gp" x1="0" y1="0" x2="1" y2="1"><stop offset="0" stop-color="#8C72E0"/><stop offset="1" stop-color="#6F4FD1"/></linearGradient>
    <marker id="an" viewBox="0 0 10 10" refX="7" refY="5" markerWidth="4.5" markerHeight="4.5" orient="auto"><path d="M0 0l10 5-10 5z" fill="#1F3A5F"/></marker>
  </defs>
<ellipse cx="140" cy="88" rx="98" ry="62" fill="#EBF2FA" fill-opacity=".7" stroke="#C9D2DE" stroke-width="2" stroke-dasharray="3 6"/>
<circle cx="140" cy="88" r="27" fill="url(#gn)"/><circle cx="140" cy="88" r="22.7" fill="none" stroke="#FFFFFF" stroke-width="2.0" stroke-opacity=".7"/>
<g transform="translate(125.4 73.4) scale(1.215)" fill="none" stroke="#FFFFFF" stroke-width="2.2" stroke-linecap="round" stroke-linejoin="round"><path d="M20 21v-2a4 4 0 0 0-4-4H8a4 4 0 0 0-4 4v2"/><circle cx="12" cy="7" r="4"/></g>
<circle cx="50" cy="30" r="16" fill="url(#gb)"/><circle cx="50" cy="30" r="13.4" fill="none" stroke="#FFFFFF" stroke-width="1.2" stroke-opacity=".7"/>
<g transform="translate(41.4 21.4) scale(0.720)" fill="none" stroke="#FFFFFF" stroke-width="2.2" stroke-linecap="round" stroke-linejoin="round"><path d="M16 21v-2a4 4 0 0 0-4-4H5a4 4 0 0 0-4 4v2"/><path d="M17 11l2 2 4-4"/><circle cx="8.5" cy="7" r="4"/></g>
<text x="50" y="59" text-anchor="middle" font-family="Lato, 'Helvetica Neue', Arial, sans-serif" font-weight="700" font-size="10" fill="#234A70">Agentività umana</text>
<circle cx="140" cy="20" r="16" fill="url(#gg)"/><circle cx="140" cy="20" r="13.4" fill="none" stroke="#FFFFFF" stroke-width="1.2" stroke-opacity=".7"/>
<g transform="translate(131.4 11.4) scale(0.720)" fill="none" stroke="#FFFFFF" stroke-width="2.2" stroke-linecap="round" stroke-linejoin="round"><path d="M17 21v-2a4 4 0 0 0-4-4H5a4 4 0 0 0-4 4v2"/><path d="M23 21v-2a4 4 0 0 0-3-3.87"/><path d="M16 3.13a4 4 0 0 1 0 7.75"/><circle cx="9" cy="7" r="4"/></g>
<text x="140" y="49" text-anchor="middle" font-family="Lato, 'Helvetica Neue', Arial, sans-serif" font-weight="700" font-size="10" fill="#1F6B41">Inclusione</text>
<circle cx="230" cy="30" r="16" fill="url(#go)"/><circle cx="230" cy="30" r="13.4" fill="none" stroke="#FFFFFF" stroke-width="1.2" stroke-opacity=".7"/>
<g transform="translate(221.4 21.4) scale(0.720)" fill="none" stroke="#FFFFFF" stroke-width="2.2" stroke-linecap="round" stroke-linejoin="round"><path d="M12 3v18"/><path d="M7 21h10"/><path d="M5 7h14"/><path d="M5 7l-3 7a3 3 0 0 0 6 0z"/><path d="M19 7l-3 7a3 3 0 0 0 6 0z"/></g>
<text x="230" y="59" text-anchor="middle" font-family="Lato, 'Helvetica Neue', Arial, sans-serif" font-weight="700" font-size="10" fill="#8A5210">Equità</text>
<circle cx="50" cy="138" r="16" fill="url(#gp)"/><circle cx="50" cy="138" r="13.4" fill="none" stroke="#FFFFFF" stroke-width="1.2" stroke-opacity=".7"/>
<g transform="translate(41.4 129.4) scale(0.720)" fill="none" stroke="#FFFFFF" stroke-width="2.2" stroke-linecap="round" stroke-linejoin="round"><path d="M20.84 4.61a5.5 5.5 0 0 0-7.78 0L12 5.67l-1.06-1.06a5.5 5.5 0 0 0-7.78 7.78l1.06 1.06L12 21.23l7.78-7.78 1.06-1.06a5.5 5.5 0 0 0 0-7.78z"/></g>
<text x="50" y="167" text-anchor="middle" font-family="Lato, 'Helvetica Neue', Arial, sans-serif" font-weight="700" font-size="10" fill="#4E35A3">Parità di genere</text>
<circle cx="140" cy="148" r="16" fill="url(#gb)"/><circle cx="140" cy="148" r="13.4" fill="none" stroke="#FFFFFF" stroke-width="1.2" stroke-opacity=".7"/>
<g transform="translate(131.4 139.4) scale(0.720)" fill="none" stroke="#FFFFFF" stroke-width="2.2" stroke-linecap="round" stroke-linejoin="round"><circle cx="12" cy="12" r="10"/><path d="M2 12h20"/><path d="M12 2a15.3 15.3 0 0 1 4 10 15.3 15.3 0 0 1-4 10 15.3 15.3 0 0 1-4-10 15.3 15.3 0 0 1 4-10z"/></g>
<text x="140" y="177" text-anchor="middle" font-family="Lato, 'Helvetica Neue', Arial, sans-serif" font-weight="700" font-size="10" fill="#234A70">Diversità culturale</text>
<circle cx="230" cy="138" r="16" fill="url(#gg)"/><circle cx="230" cy="138" r="13.4" fill="none" stroke="#FFFFFF" stroke-width="1.2" stroke-opacity=".7"/>
<g transform="translate(221.4 129.4) scale(0.720)" fill="none" stroke="#FFFFFF" stroke-width="2.2" stroke-linecap="round" stroke-linejoin="round"><path d="M21 15a2 2 0 0 1-2 2H7l-4 4V5a2 2 0 0 1 2-2h14a2 2 0 0 1 2 2z"/></g>
<text x="230" y="167" text-anchor="middle" font-family="Lato, 'Helvetica Neue', Arial, sans-serif" font-weight="700" font-size="10" fill="#1F6B41">Pluralità di idee</text>
</svg>
